<svg xmlns="http://www.w3.org/2000/svg" xmlns:xlink="http://www.w3.org/1999/xlink" viewBox="0 0 100 100" width="100" height="100" preserveAspectRatio="xMidYMid meet" style="width: 100%; height: 100%; transform: translate3d(0px, 0px, 0px); content-visibility: visible;"><defs><clipPath id="__lottie_element_159"><rect width="100" height="100" x="0" y="0"></rect></clipPath></defs><g clip-path="url(#__lottie_element_159)"><g transform="matrix(1,0,0,1,28.5,33.5)" opacity="1" style="display: block;"><g opacity="1" transform="matrix(1,0,0,1,21.466999053955078,16.216999053955078)"><path fill="rgb(255,219,37)" fill-opacity="1" d=" M-9.75100040435791,7.999000072479248 C-9.75100040435791,7.999000072479248 -16.750999450683594,0.9990000128746033 -16.750999450683594,0.9990000128746033 C-17.716999053955078,0.032999999821186066 -19.28499984741211,0.032999999821186066 -20.250999450683594,0.9990000128746033 C-21.216999053955078,1.965999960899353 -21.216999053955078,3.5320000648498535 -20.250999450683594,4.499000072479248 C-20.250999450683594,4.499000072479248 -9.75100040435791,14.99899959564209 -9.75100040435791,14.99899959564209 C-8.78499984741211,15.965999603271484 -7.2170000076293945,15.965999603271484 -6.250999927520752,14.99899959564209 C-6.250999927520752,14.99899959564209 20.249000549316406,-11.50100040435791 20.249000549316406,-11.50100040435791 C21.215999603271484,-12.467000007629395 21.215999603271484,-14.03499984741211 20.249000549316406,-15.00100040435791 C19.281999588012695,-15.967000007629395 17.715999603271484,-15.967000007629395 16.749000549316406,-15.00100040435791 C16.749000549316406,-15.00100040435791 -6.250999927520752,7.999000072479248 -6.250999927520752,7.999000072479248 C-7.2170000076293945,8.965999603271484 -8.78499984741211,8.965999603271484 -9.75100040435791,7.999000072479248z"></path></g></g></g></svg>