<svg width="132" height="30" viewBox="0 0 132 30" fill="none" xmlns="http://www.w3.org/2000/svg">
<path d="M117.674 29.5969L121.224 21.7539L114.672 7.3266H118.577L123.096 17.5903L127.615 7.3266H131.455L121.418 29.5969H117.674Z" fill="black"/>
<path d="M106.043 24.5942L102.783 23.0127L101.073 20.5275L100.46 17.7517V13.9432L101.073 11.1675L102.783 8.68221L106.043 7.06842H109.465L112.757 8.68221L114.467 11.1675L115.048 13.9432V17.7517L114.467 20.5275L112.757 23.0127L109.465 24.5942H106.043ZM106.689 21.2052H108.819L110.497 20.3661L111.207 19.2687L111.627 17.2999V14.3305L111.207 12.4585L110.433 11.2966L108.851 10.4897H106.624L105.107 11.2966L104.3 12.4262L103.913 14.3305V17.2999L104.3 19.301L105.043 20.3661L106.689 21.2052Z" fill="black"/>
<path d="M93.6998 4.68V0H98.2184V4.68H93.6998ZM91.8278 29.5647L89.7299 29.0483L90.6013 25.7239L92.1828 26.1112H92.8929L93.7966 25.8207L94.3776 24.8847V7.32662H97.8311V25.9175L96.1205 28.5964L93.3125 29.5647H91.8278Z" fill="black"/>
<path d="M77.112 24.336V7.32663H80.5655V8.35946L82.7926 7.06842H85.6974L88.6991 7.87532L90.7324 10.6188V24.336H87.2789V11.8775L86.6657 11.0061L85.0519 10.4897H83.3413L81.3402 11.813L80.5655 12.9104V24.336H77.112Z" fill="black"/>
<path d="M64.4034 29.7584L62.2086 29.1774L60.498 28.08L59.3361 26.9181L61.7568 24.4328L62.8219 25.4979L63.4028 25.9498L64.8875 26.3371H66.8563L68.1151 25.8852L69.277 25.0461L69.5675 24.336V22.4317L67.631 23.5937H64.6616L61.3372 22.3026L59.0779 19.3655L58.3678 16.9771V14.0077L59.0779 11.587L61.2404 8.68221L64.5002 7.06842H67.3728L69.3093 7.77849L69.5675 7.97214V7.32663H72.9888V24.8201L72.1819 27.2408L69.5998 28.9515L67.2759 29.7584H64.4034ZM65.178 20.1724H66.9855L68.7606 18.9459L69.5675 17.6872V12.1357L69.0188 11.4902L68.0183 10.8447L66.9532 10.4574H65.0812L63.4997 11.3611L62.1441 13.2008L61.8213 14.4273V16.5575L62.1118 17.6872L63.4351 19.4946L65.178 20.1724Z" fill="black"/>
<path d="M51.1481 4.68V0H55.6667V4.68H51.1481ZM51.6968 24.336V7.32662H55.1503V24.336H51.6968Z" fill="black"/>
<path d="M40.6569 24.5942L37.978 23.9164L36.4288 22.6577L35.396 21.4957L37.8167 19.1719L38.6558 20.1401L39.3659 20.6888L41.2379 21.2052H43.1099L44.175 20.8825L44.8205 20.4306L45.2401 19.8497V18.9137L44.8205 18.2359L44.1105 17.7517L39.7532 16.848L37.5907 15.6861L36.1706 13.7495V10.7156L37.268 8.81132L38.8495 7.61711L40.786 7.06842H43.6263L46.1761 7.74621L48.4677 9.29545L46.5634 12.1357L44.8205 10.9415L43.2713 10.4574H41.367L40.2051 10.7801L39.8823 11.0706L39.5918 11.587V12.6844L40.0437 13.2654L40.7215 13.6204L45.4338 14.5564L47.338 15.8152L48.6613 17.9454V20.8502L47.4026 22.7545L45.7565 23.9487L43.4972 24.5942H40.6569Z" fill="black"/>
<path d="M25.4974 24.5942L22.2052 22.9804L20.0427 20.0756L19.365 17.7195V14.0077L20.0427 11.587L22.2052 8.68221L25.4974 7.06842H28.4022L31.6943 8.68221L33.8245 11.587L34.5992 13.8141V17.6872H22.8185L23.1412 18.4618L24.4968 20.3661L26.1752 21.173H27.8212L29.7578 20.6566L31.7266 19.4624L33.5341 22.2381L31.0488 23.8841L28.2085 24.5942H25.4974ZM22.8507 14.2659H31.1134L30.7583 13.2331L29.435 11.3934L27.789 10.4897H26.0461L24.4645 11.3288L23.0767 13.2008L22.8507 14.2659Z" fill="black"/>
<path d="M0.835835 24.336V1.38788H9.45349L13.1652 2.84029L15.3922 5.0996L16.8124 7.9076L17.4902 10.7156V15.0083L16.8124 17.8163L15.3922 20.6243L13.1652 22.8836L9.45349 24.336H0.835835ZM4.32163 20.8825H8.7757L11.1318 19.8819L12.5197 18.4941L13.3911 16.6866L14.0044 14.4596V11.2643L13.4234 9.03726L12.4874 7.16526L11.0996 5.80967L8.7757 4.8414H4.32163V20.8825Z" fill="black"/>
</svg>
