<svg xmlns="http://www.w3.org/2000/svg" xmlns:xlink="http://www.w3.org/1999/xlink" viewBox="0 0 100 100" width="100" height="100" preserveAspectRatio="xMidYMid meet" style="width: 100%; height: 100%; transform: translate3d(0px, 0px, 0px); content-visibility: visible;"><defs><clipPath id="__lottie_element_25"><rect width="100" height="100" x="0" y="0"></rect></clipPath></defs><g clip-path="url(#__lottie_element_25)"><g transform="matrix(0.07839105278253555,-0.9969226717948914,0.9969226717948914,0.07839105278253555,34.982845306396484,49.11907958984375)" opacity="1" style="display: block;"><g opacity="1" transform="matrix(3,0,0,3,0,0)"><path fill="rgb(0,0,0)" fill-opacity="1" d=" M10.890999794006348,-4.881999969482422 C10.96500015258789,-5.414999961853027 10.581000328063965,-5.906000137329102 10.034000396728516,-5.978000164031982 C9.487000465393066,-6.050000190734863 8.982999801635742,-5.677000045776367 8.909000396728516,-5.144000053405762 C8.909000396728516,-5.144000053405762 8.46399974822998,-1.9450000524520874 8.46399974822998,-1.9450000524520874 C6.460000038146973,-4.261000156402588 3.441999912261963,-5.695000171661377 0.10000000149011612,-5.695000171661377 C-5.952000141143799,-5.695000171661377 -10.899999618530273,-0.8790000081062317 -10.899999618530273,5.013000011444092 C-10.899999618530273,5.551000118255615 -10.45199966430664,5.986999988555908 -9.899999618530273,5.986999988555908 C-9.347999572753906,5.986999988555908 -8.899999618530273,5.551000118255615 -8.899999618530273,5.013000011444092 C-8.899999618530273,0.19699999690055847 -4.8480000495910645,-3.747999906539917 0.10000000149011612,-3.747999906539917 C2.930000066757202,-3.747999906539917 5.456999778747559,-2.5 7.083000183105469,-0.5139999985694885 C7.083000183105469,-0.5139999985694885 3.2320001125335693,-1.0140000581741333 3.2320001125335693,-1.0140000581741333 C2.684999942779541,-1.0850000381469727 2.181999921798706,-0.7099999785423279 2.1089999675750732,-0.1770000010728836 C2.0360000133514404,0.35600000619888306 2.4210000038146973,0.8450000286102295 2.9679999351501465,0.9160000085830688 C2.9679999351501465,0.9160000085830688 8.968000411987305,1.6950000524520874 8.968000411987305,1.6950000524520874 C9.515000343322754,1.7660000324249268 10.017000198364258,1.3930000066757202 10.090999603271484,0.8610000014305115 C10.090999603271484,0.8610000014305115 10.890999794006348,-4.881999969482422 10.890999794006348,-4.881999969482422z"></path></g></g><g transform="matrix(0.07839105278253555,-0.9969226717948914,0.9969226717948914,0.07839105278253555,65.0172348022461,50.87992477416992)" opacity="1" style="display: block;"><g opacity="1" transform="matrix(3,0,0,3,0,0)"><path fill="rgb(0,0,0)" fill-opacity="1" d=" M9.899999618530273,-5.986999988555908 C10.45199966430664,-5.986999988555908 10.899999618530273,-5.551000118255615 10.899999618530273,-5.013000011444092 C10.899999618530273,0.8790000081062317 5.952000141143799,5.695000171661377 -0.10000000149011612,5.695000171661377 C-3.441999912261963,5.695000171661377 -6.459000110626221,4.26200008392334 -8.463000297546387,1.9459999799728394 C-8.463000297546387,1.9459999799728394 -8.909000396728516,5.144000053405762 -8.909000396728516,5.144000053405762 C-8.982999801635742,5.677000045776367 -9.487000465393066,6.050000190734863 -10.034000396728516,5.978000164031982 C-10.581000328063965,5.906000137329102 -10.96500015258789,5.414999961853027 -10.890999794006348,4.881999969482422 C-10.890999794006348,4.881999969482422 -10.090999603271484,-0.8610000014305115 -10.090999603271484,-0.8610000014305115 C-10.017000198364258,-1.3930000066757202 -9.515000343322754,-1.7660000324249268 -8.968000411987305,-1.6950000524520874 C-8.968000411987305,-1.6950000524520874 -2.9679999351501465,-0.9160000085830688 -2.9679999351501465,-0.9160000085830688 C-2.4210000038146973,-0.8450000286102295 -2.0350000858306885,-0.35600000619888306 -2.1080000400543213,0.1770000010728836 C-2.180999994277954,0.7099999785423279 -2.684999942779541,1.0839999914169312 -3.2320001125335693,1.0130000114440918 C-3.2320001125335693,1.0130000114440918 -7.083000183105469,0.5139999985694885 -7.083000183105469,0.5139999985694885 C-5.456999778747559,2.5 -2.930000066757202,3.747999906539917 -0.10000000149011612,3.747999906539917 C4.8480000495910645,3.747999906539917 8.899999618530273,-0.19699999690055847 8.899999618530273,-5.013000011444092 C8.899999618530273,-5.551000118255615 9.347999572753906,-5.986999988555908 9.899999618530273,-5.986999988555908z"></path></g></g></g></svg>